<svg xmlns="http://www.w3.org/2000/svg" viewBox="0 0 258 60.00" width="258" height="60.00" role="img" aria-label="Maverick Wall">
  <g transform="scale(1.76471) translate(-8 -15)">
    <g fill="var(--mw-neutral, #6B7684)" fill-opacity=".34">
      <rect x="8" y="15" width="6" height="6" rx="1"/><rect x="15" y="15" width="6" height="6" rx="1"/><rect x="22" y="15" width="6" height="6" rx="1"/><rect x="29" y="15" width="6" height="6" rx="1"/><rect x="36" y="15" width="6" height="6" rx="1"/><rect x="43" y="15" width="6" height="6" rx="1"/><rect x="50" y="15" width="6" height="6" rx="1"/>
      <rect x="8" y="22" width="6" height="6" rx="1"/><rect x="15" y="22" width="6" height="6" rx="1"/><rect x="22" y="22" width="6" height="6" rx="1"/><rect x="29" y="22" width="6" height="6" rx="1"/><rect x="36" y="22" width="6" height="6" rx="1"/><rect x="43" y="22" width="6" height="6" rx="1"/><rect x="50" y="22" width="6" height="6" rx="1"/>
      <rect x="8" y="29" width="6" height="6" rx="1"/><rect x="15" y="29" width="6" height="6" rx="1"/><rect x="22" y="29" width="6" height="6" rx="1"/><rect x="36" y="29" width="6" height="6" rx="1"/><rect x="43" y="29" width="6" height="6" rx="1"/><rect x="50" y="29" width="6" height="6" rx="1"/>
      <rect x="8" y="36" width="6" height="6" rx="1"/><rect x="15" y="36" width="6" height="6" rx="1"/><rect x="22" y="36" width="6" height="6" rx="1"/><rect x="29" y="36" width="6" height="6" rx="1"/><rect x="36" y="36" width="6" height="6" rx="1"/><rect x="43" y="36" width="6" height="6" rx="1"/><rect x="50" y="36" width="6" height="6" rx="1"/>
      <rect x="8" y="43" width="6" height="6" rx="1"/><rect x="15" y="43" width="6" height="6" rx="1"/><rect x="22" y="43" width="6" height="6" rx="1"/><rect x="29" y="43" width="6" height="6" rx="1"/><rect x="36" y="43" width="6" height="6" rx="1"/><rect x="43" y="43" width="6" height="6" rx="1"/><rect x="50" y="43" width="6" height="6" rx="1"/>
    </g>
    <rect x="29" y="29" width="6" height="6" rx="1" fill="var(--mw-accent, #E8A33D)"/>
  </g>
  <g fill="var(--mw-ink, #E9EEF4)" fill-rule="evenodd">
    <g transform="translate(98.71 0.00) scale(0.40625)"><path d="M0 64 V0 H21 L32 35.2 L43 0 H64 V64 H53 V0 H52 L32 64 L12 0 H11 V64 Z" transform="translate(0 0)"/><path d="M0 64 L23 0 L46 64 H35 L31.77 55 H14.23 L11 64 Z M23 30.6 L27.8 44 H18.2 Z" transform="translate(68 0)"/><path d="M0 0 H11 L23 33.4 L35 0 H46 L23 64 Z" transform="translate(118 0)"/><path d="M0 0 H40 V11 H11 V26 H34 V37 H11 V53 H40 V64 H0 Z" transform="translate(168 0)"/><path d="M0 0 H31 A17 17 0 0 1 31 34 H24 L48 64 H35 L16 36 H11 V64 H0 Z M11 11 H31 A6 6 0 0 1 31 23 H11 Z" transform="translate(215 0)"/><path d="M0 0 H11 V64 H0 Z" transform="translate(270 0)"/><path d="M43 6.6 A29 29 0 1 0 43 57.4 V43.3 A18 18 0 1 1 43 20.7 Z" transform="translate(286 0)"/><path d="M0 0 H11 V27 L33 0 H46 L26 32 L47 64 H34 L11 48 V64 H0 Z" transform="translate(345 0)"/></g>
    <g transform="translate(98.71 34.00) scale(0.40625)"><path d="M0 0 H11 L20 45 L28 8 H38 L46 45 L55 0 H66 L46 64 L33 26 L20 64 Z" transform="translate(0 0)"/><path d="M0 64 L23 0 L46 64 H35 L31.77 55 H14.23 L11 64 Z M23 30.6 L27.8 44 H18.2 Z" transform="translate(67 0)"/><path d="M0 0 H11 V53 H38 V64 H0 Z" transform="translate(116 0)"/><path d="M0 0 H11 V53 H38 V64 H0 Z" transform="translate(158 0)"/></g>
  </g>
</svg>
