<svg xmlns="http://www.w3.org/2000/svg" viewBox="0 0 605 64" width="605" height="64" role="img" aria-label="Maverick Wall">
  <!-- Outlined, so it renders identically on a machine with no fonts installed. -->
  <g fill="var(--mw-ink, #E9EEF4)" fill-rule="evenodd"><path d="M0 64 V0 H23 L26 11 L29 0 H52 V64 H41 V0 H40 L26 52 L12 0 H11 V64 Z" transform="translate(0 0)"/><path d="M0 64 L23 0 L46 64 H35 L31.77 55 H14.23 L11 64 Z M23 30.6 L27.8 44 H18.2 Z" transform="translate(56 0)"/><path d="M0 0 H11 L23 33.4 L35 0 H46 L23 64 Z" transform="translate(106 0)"/><path d="M0 0 H40 V11 H11 V26 H34 V37 H11 V53 H40 V64 H0 Z" transform="translate(156 0)"/><path d="M0 0 H31 A17 17 0 0 1 31 34 H24 L48 64 H35 L16 36 H11 V64 H0 Z M11 11 H31 A6 6 0 0 1 31 23 H11 Z" transform="translate(203 0)"/><path d="M0 0 H11 V64 H0 Z" transform="translate(258 0)"/><path d="M43 6.6 A29 29 0 1 0 43 57.4 V43.3 A18 18 0 1 1 43 20.7 Z" transform="translate(274 0)"/><path d="M0 0 H11 V27 L33 0 H46 L26 32 L47 64 H34 L11 48 V64 H0 Z" transform="translate(333 0)"/><path d="M0 0 H11 L20 45 L28 8 H38 L46 45 L55 0 H66 L46 64 L33 26 L20 64 Z" transform="translate(409 0)"/><path d="M0 64 L23 0 L46 64 H35 L31.77 55 H14.23 L11 64 Z M23 30.6 L27.8 44 H18.2 Z" transform="translate(476 0)"/><path d="M0 0 H11 V53 H38 V64 H0 Z" transform="translate(525 0)"/><path d="M0 0 H11 V53 H38 V64 H0 Z" transform="translate(567 0)"/></g>
</svg>
